# xmcd CD database file
#
# Track frame offsets:
#	150
#	16352
#	32220
#	46425
#	60877
#	75097
#	88765
#	102137
#	116777
#	135327
#	146270
#	160115
#	174067
#	189275
#
# Disc length: 2713 seconds
#
# Revision: 2
# Processed by: cddbd v1.4b42PL0 Copyright (c) Steve Scherf et al.
# Submitted via: CDex 1.40Beta5
#
DISCID=9b0a970e
DTITLE=Dagmar - Irgendwo Heut Nacht
DYEAR=1900
DGENRE=Country
TTITLE0=Heute Abend bin ich nicht allein
TTITLE1=Zu teuer
TTITLE2=Wie eine Sonne in der Nacht
TTITLE3=Fahr nochmal mit mir nach nashville
TTITLE4=So Viele Fragen (& Chrissy)
TTITLE5=Mit dem Jeep durch den Canyon
TTITLE6=Frieden auf der ganzen Welt
TTITLE7=Irgendwo heut Nacht
TTITLE8=In so einem zärtlichen Augenblick
TTITLE9=Sag nicht goodbye sag nicht adieu
TTITLE10=Komm nicht auf dumme Ideen
TTITLE11=Du hast doch ein Rad ab
TTITLE12=Face The Morning Sun
TTITLE13=I Love Country Music
EXTD=ID3G:   2
EXTT0=
EXTT1=
EXTT2=
EXTT3=
EXTT4=
EXTT5=
EXTT6=
EXTT7=
EXTT8=
EXTT9=
EXTT10=
EXTT11=
EXTT12=
EXTT13=
PLAYORDER=
